<svg xmlns="http://www.w3.org/2000/svg" width="32" height="32" viewBox="0 0 32 32">
  <!-- 背景 -->
  <rect width="32" height="32" fill="#0B1A2F" rx="4" ry="4"/>
  
  <!-- 星星点缀 -->
  <g fill="#FFFFFF">
    <circle cx="4" cy="5" r="0.3"/>
    <circle cx="8" cy="3" r="0.2"/>
    <circle cx="12" cy="6" r="0.3"/>
    <circle cx="20" cy="4" r="0.2"/>
    <circle cx="24" cy="7" r="0.3"/>
    <circle cx="28" cy="5" r="0.2"/>
    <circle cx="6" cy="10" r="0.3"/>
    <circle cx="26" cy="10" r="0.2"/>
    <circle cx="4" cy="26" r="0.3"/>
    <circle cx="12" cy="28" r="0.2"/>
    <circle cx="20" cy="25" r="0.3"/>
    <circle cx="28" cy="27" r="0.2"/>
  </g>
  
  <!-- 亮星 -->
  <circle cx="8" cy="8" r="0.5" fill="#FFD700"/>
  <circle cx="8" cy="8" r="1" fill="#FFD700" opacity="0.5"/>
  
  <circle cx="24" cy="24" r="0.5" fill="#FFD700"/>
  <circle cx="24" cy="24" r="1" fill="#FFD700" opacity="0.5"/>
  
  <!-- 中心星系 -->
  <g>
    <!-- 星系核心 -->
    <circle cx="16" cy="16" r="4" fill="#FFD700" opacity="0.9"/>
    <circle cx="16" cy="16" r="2.5" fill="#FFFFFF" opacity="0.8"/>
    
    <!-- 星系旋臂 (简化版) -->
    <path d="M 16 12 Q 20 13 22 10" stroke="#FFD700" stroke-width="0.5" fill="none" opacity="0.7"/>
    <path d="M 16 20 Q 20 19 22 22" stroke="#FFD700" stroke-width="0.5" fill="none" opacity="0.7"/>
    <path d="M 16 12 Q 12 13 10 10" stroke="#FFD700" stroke-width="0.5" fill="none" opacity="0.7"/>
    <path d="M 16 20 Q 12 19 10 22" stroke="#FFD700" stroke-width="0.5" fill="none" opacity="0.7"/>
  </g>
  
  <!-- 脉冲效果 -->
  <circle cx="16" cy="16" r="6" fill="none" stroke="#FFD700" stroke-width="0.3" opacity="0.5">
    <animate attributeName="r" values="6;8;6" dur="3s" repeatCount="indefinite"/>
    <animate attributeName="opacity" values="0.5;0;0.5" dur="3s" repeatCount="indefinite"/>
  </circle>
</svg>