<svg xmlns="http://www.w3.org/2000/svg" width="1000" height="1000" viewBox="0 0 1000 1000">
  <defs>
    <radialGradient id="star-glow" cx="50%" cy="50%" r="50%" fx="50%" fy="50%">
      <stop offset="0%" stop-color="#FFD700" stop-opacity="1"/>
      <stop offset="100%" stop-color="#FFD700" stop-opacity="0"/>
    </radialGradient>
  </defs>
  <rect width="100%" height="100%" fill="#0B1A2F"/>
  
  <!-- Small stars -->
  <g fill="#FFFFFF">
    <!-- Randomly positioned small stars -->
    <circle cx="50" cy="75" r="1"/>
    <circle cx="120" cy="30" r="1.2"/>
    <circle cx="200" cy="150" r="0.8"/>
    <circle cx="280" cy="90" r="1"/>
    <circle cx="350" cy="180" r="1.1"/>
    <circle cx="420" cy="60" r="0.9"/>
    <circle cx="500" cy="120" r="1"/>
    <circle cx="580" cy="200" r="0.7"/>
    <circle cx="650" cy="80" r="1.2"/>
    <circle cx="720" cy="170" r="0.8"/>
    <circle cx="800" cy="40" r="1"/>
    <circle cx="880" cy="130" r="0.9"/>
    <circle cx="950" cy="190" r="1.1"/>
    <circle cx="30" cy="250" r="0.8"/>
    <circle cx="100" cy="320" r="1"/>
    <circle cx="180" cy="270" r="1.2"/>
    <circle cx="250" cy="350" r="0.9"/>
    <circle cx="330" cy="290" r="1"/>
    <circle cx="400" cy="380" r="0.7"/>
    <circle cx="480" cy="240" r="1.1"/>
    <circle cx="550" cy="330" r="0.8"/>
    <circle cx="630" cy="280" r="1"/>
    <circle cx="700" cy="360" r="1.2"/>
    <circle cx="780" cy="300" r="0.9"/>
    <circle cx="850" cy="370" r="1"/>
    <circle cx="930" cy="310" r="0.7"/>
    <circle cx="70" cy="430" r="1.1"/>
    <circle cx="150" cy="490" r="0.8"/>
    <circle cx="220" cy="420" r="1"/>
    <circle cx="300" cy="500" r="1.2"/>
    <circle cx="370" cy="450" r="0.9"/>
    <circle cx="450" cy="520" r="1"/>
    <circle cx="520" cy="470" r="0.7"/>
    <circle cx="600" cy="540" r="1.1"/>
    <circle cx="670" cy="480" r="0.8"/>
    <circle cx="750" cy="550" r="1"/>
    <circle cx="820" cy="490" r="1.2"/>
    <circle cx="900" cy="560" r="0.9"/>
    <circle cx="970" cy="510" r="1"/>
    <circle cx="40" cy="580" r="0.7"/>
    <circle cx="120" cy="650" r="1.1"/>
    <circle cx="190" cy="600" r="0.8"/>
    <circle cx="270" cy="670" r="1"/>
    <circle cx="340" cy="620" r="1.2"/>
    <circle cx="420" cy="690" r="0.9"/>
    <circle cx="490" cy="630" r="1"/>
    <circle cx="570" cy="700" r="0.7"/>
    <circle cx="640" cy="640" r="1.1"/>
    <circle cx="720" cy="710" r="0.8"/>
    <circle cx="790" cy="660" r="1"/>
    <circle cx="870" cy="730" r="1.2"/>
    <circle cx="940" cy="680" r="0.9"/>
    <circle cx="20" cy="750" r="1"/>
    <circle cx="90" cy="820" r="0.7"/>
    <circle cx="170" cy="770" r="1.1"/>
    <circle cx="240" cy="840" r="0.8"/>
    <circle cx="320" cy="790" r="1"/>
    <circle cx="390" cy="860" r="1.2"/>
    <circle cx="470" cy="810" r="0.9"/>
    <circle cx="540" cy="880" r="1"/>
    <circle cx="620" cy="830" r="0.7"/>
    <circle cx="690" cy="900" r="1.1"/>
    <circle cx="770" cy="850" r="0.8"/>
    <circle cx="840" cy="920" r="1"/>
    <circle cx="920" cy="870" r="1.2"/>
    <circle cx="990" cy="940" r="0.9"/>
    <circle cx="60" cy="970" r="1"/>
    <circle cx="140" cy="910" r="0.7"/>
    <circle cx="210" cy="980" r="1.1"/>
    <circle cx="290" cy="930" r="0.8"/>
    <circle cx="360" cy="990" r="1"/>
    <circle cx="440" cy="950" r="1.2"/>
    <circle cx="510" cy="920" r="0.9"/>
    <circle cx="590" cy="990" r="1"/>
    <circle cx="660" cy="940" r="0.7"/>
    <circle cx="740" cy="910" r="1.1"/>
    <circle cx="810" cy="980" r="0.8"/>
    <circle cx="890" cy="930" r="1"/>
    <circle cx="960" cy="990" r="1.2"/>
  </g>
  
  <!-- Medium stars with glow -->
  <g>
    <circle cx="150" cy="100" r="1.5" fill="#FFFFFF"/>
    <circle cx="150" cy="100" r="3" fill="url(#star-glow)" opacity="0.7"/>
    
    <circle cx="450" cy="200" r="1.5" fill="#FFFFFF"/>
    <circle cx="450" cy="200" r="3" fill="url(#star-glow)" opacity="0.7"/>
    
    <circle cx="750" cy="150" r="1.5" fill="#FFFFFF"/>
    <circle cx="750" cy="150" r="3" fill="url(#star-glow)" opacity="0.7"/>
    
    <circle cx="250" cy="400" r="1.5" fill="#FFFFFF"/>
    <circle cx="250" cy="400" r="3" fill="url(#star-glow)" opacity="0.7"/>
    
    <circle cx="550" cy="350" r="1.5" fill="#FFFFFF"/>
    <circle cx="550" cy="350" r="3" fill="url(#star-glow)" opacity="0.7"/>
    
    <circle cx="850" cy="450" r="1.5" fill="#FFFFFF"/>
    <circle cx="850" cy="450" r="3" fill="url(#star-glow)" opacity="0.7"/>
    
    <circle cx="350" cy="650" r="1.5" fill="#FFFFFF"/>
    <circle cx="350" cy="650" r="3" fill="url(#star-glow)" opacity="0.7"/>
    
    <circle cx="650" cy="600" r="1.5" fill="#FFFFFF"/>
    <circle cx="650" cy="600" r="3" fill="url(#star-glow)" opacity="0.7"/>
    
    <circle cx="950" cy="700" r="1.5" fill="#FFFFFF"/>
    <circle cx="950" cy="700" r="3" fill="url(#star-glow)" opacity="0.7"/>
    
    <circle cx="150" cy="850" r="1.5" fill="#FFFFFF"/>
    <circle cx="150" cy="850" r="3" fill="url(#star-glow)" opacity="0.7"/>
    
    <circle cx="450" cy="800" r="1.5" fill="#FFFFFF"/>
    <circle cx="450" cy="800" r="3" fill="url(#star-glow)" opacity="0.7"/>
    
    <circle cx="750" cy="900" r="1.5" fill="#FFFFFF"/>
    <circle cx="750" cy="900" r="3" fill="url(#star-glow)" opacity="0.7"/>
  </g>
  
  <!-- Large bright stars (pulsar color) -->
  <g>
    <circle cx="300" cy="200" r="2" fill="#FFD700"/>
    <circle cx="300" cy="200" r="5" fill="url(#star-glow)" opacity="0.9"/>
    
    <circle cx="700" cy="300" r="2" fill="#FFD700"/>
    <circle cx="700" cy="300" r="5" fill="url(#star-glow)" opacity="0.9"/>
    
    <circle cx="200" cy="600" r="2" fill="#FFD700"/>
    <circle cx="200" cy="600" r="5" fill="url(#star-glow)" opacity="0.9"/>
    
    <circle cx="800" cy="700" r="2" fill="#FFD700"/>
    <circle cx="800" cy="700" r="5" fill="url(#star-glow)" opacity="0.9"/>
    
    <circle cx="500" cy="500" r="2.5" fill="#FFD700"/>
    <circle cx="500" cy="500" r="7" fill="url(#star-glow)" opacity="0.9"/>
  </g>
  
  <!-- Nebula-like effects -->
  <g opacity="0.1">
    <ellipse cx="300" cy="300" rx="200" ry="150" fill="#4A6FA5" opacity="0.2"/>
    <ellipse cx="700" cy="600" rx="250" ry="180" fill="#1E3A5F" opacity="0.2"/>
    <ellipse cx="200" cy="700" rx="150" ry="120" fill="#2C4C7C" opacity="0.2"/>
    <ellipse cx="800" cy="200" rx="180" ry="140" fill="#4A6FA5" opacity="0.2"/>
  </g>
</svg>