<svg xmlns="http://www.w3.org/2000/svg" width="200" height="200" viewBox="0 0 200 200">
  <!-- 背景圆形 -->
  <circle cx="100" cy="100" r="90" fill="#0B1A2F" stroke="#4A6FA5" stroke-width="2"/>
  
  <!-- 分类图标 - 标签符号 -->
  <g transform="translate(100, 100)">
    <!-- 标签形状 -->
    <path d="M -40,-40 L 40,-40 L 40,40 L -40,40 Z" fill="none" stroke="#FFD700" stroke-width="3" rx="5" ry="5"/>
    
    <!-- 内部分隔线 -->
    <line x1="-40" y1="-10" x2="40" y2="-10" stroke="#7A9AC5" stroke-width="2"/>
    <line x1="-40" y1="10" x2="40" y2="10" stroke="#7A9AC5" stroke-width="2"/>
    
    <!-- 分类图标 -->
    <circle cx="-25" cy="-25" r="8" fill="#FFD700" opacity="0.8"/>
    <rect x="15" y="-30" width="16" height="10" fill="#7A9AC5" rx="2" ry="2"/>
    
    <rect x="-30" cy="-5" width="16" height="10" fill="#7A9AC5" rx="2" ry="2"/>
    <circle cx="25" cy="0" r="8" fill="#FFD700" opacity="0.8"/>
    
    <circle cx="-25" cy="25" r="8" fill="#FFD700" opacity="0.8"/>
    <rect x="15" y="20" width="16" height="10" fill="#7A9AC5" rx="2" ry="2"/>
    
    <!-- 连接线 -->
    <line x1="-15" y1="-25" x2="15" y2="-25" stroke="#4A6FA5" stroke-width="1" stroke-dasharray="2,2"/>
    <line x1="-15" y1="0" x2="15" y2="0" stroke="#4A6FA5" stroke-width="1" stroke-dasharray="2,2"/>
    <line x1="-15" y1="25" x2="15" y2="25" stroke="#4A6FA5" stroke-width="1" stroke-dasharray="2,2"/>
    
    <!-- 光芒效果 -->
    <g opacity="0.6">
      <line x1="0" y1="-50" x2="0" y2="-70" stroke="#FFD700" stroke-width="1"/>
      <line x1="50" y1="0" x2="70" y2="0" stroke="#FFD700" stroke-width="1"/>
      <line x1="0" y1="50" x2="0" y2="70" stroke="#FFD700" stroke-width="1"/>
      <line x1="-50" y1="0" x2="-70" y2="0" stroke="#FFD700" stroke-width="1"/>
      
      <line x1="35" y1="-35" x2="50" y2="-50" stroke="#FFD700" stroke-width="1"/>
      <line x1="35" y1="35" x2="50" y2="50" stroke="#FFD700" stroke-width="1"/>
      <line x1="-35" y1="35" x2="-50" y2="50" stroke="#FFD700" stroke-width="1"/>
      <line x1="-35" y1="-35" x2="-50" y2="-50" stroke="#FFD700" stroke-width="1"/>
    </g>
  </g>
  
  <!-- 星星背景 -->
  <g fill="#FFFFFF">
    <circle cx="30" cy="30" r="1"/>
    <circle cx="50" cy="170" r="1"/>
    <circle cx="150" cy="40" r="1"/>
    <circle cx="170" cy="160" r="1"/>
    <circle cx="40" cy="100" r="1"/>
    <circle cx="160" cy="100" r="1"/>
    <circle cx="100" cy="40" r="1"/>
    <circle cx="100" cy="160" r="1"/>
    <circle cx="60" cy="60" r="1"/>
    <circle cx="140" cy="140" r="1"/>
    <circle cx="60" cy="140" r="1"/>
    <circle cx="140" cy="60" r="1"/>
  </g>
</svg>