<svg xmlns="http://www.w3.org/2000/svg" width="24" height="24" viewBox="0 0 24 24">
  <!-- 背景圆形 -->
  <circle cx="12" cy="12" r="11" fill="#0B1A2F" stroke="#4A6FA5" stroke-width="1"/>
  
  <!-- 评论图标 -->
  <g transform="translate(12, 12)">
    <!-- 对话框 -->
    <path d="M -7,-5 L 7,-5 C 8,-5 8,-4 8,-3 L 8,3 C 8,4 7,5 6,5 L 0,5 L -3,8 L -3,5 L -7,5 C -8,5 -8,4 -8,3 L -8,-3 C -8,-4 -8,-5 -7,-5 Z" 
          stroke="#FFD700" stroke-width="1.5" fill="none" stroke-linejoin="round"/>
    
    <!-- 文本线条 -->
    <line x1="-4" y1="-2" x2="4" y2="-2" stroke="#7A9AC5" stroke-width="1"/>
    <line x1="-4" y1="0" x2="4" y2="0" stroke="#7A9AC5" stroke-width="1"/>
    <line x1="-4" y1="2" x2="2" y2="2" stroke="#7A9AC5" stroke-width="1"/>
  </g>
  
  <!-- 星星装饰 -->
  <g fill="#FFFFFF">
    <circle cx="5" cy="5" r="0.5"/>
    <circle cx="19" cy="5" r="0.5"/>
    <circle cx="5" cy="19" r="0.5"/>
    <circle cx="19" cy="19" r="0.5"/>
  </g>
  
  <!-- 脉冲效果 -->
  <circle cx="12" cy="12" r="9" stroke="#FFD700" stroke-width="0.5" fill="none" opacity="0.2">
    <animate attributeName="r" values="9;10;9" dur="2s" repeatCount="indefinite"/>
    <animate attributeName="opacity" values="0.2;0.1;0.2" dur="2s" repeatCount="indefinite"/>
  </circle>
</svg>