<svg xmlns="http://www.w3.org/2000/svg" width="32" height="32" viewBox="0 0 32 32">
  <!-- 背景圆形 -->
  <circle cx="16" cy="16" r="15" fill="#0B1A2F" stroke="#4A6FA5" stroke-width="1"/>
  
  <!-- 联系图标 -->
  <g transform="translate(16, 16)">
    <!-- 电话 -->
    <path d="M -8,5 C -8,5 -8,8 -5,8 C -2,8 -2,5 -2,5 L -2,-1 C -2,-1 -2,-4 -5,-4 C -8,-4 -8,-1 -8,-1 Z" 
          fill="none" stroke="#FFD700" stroke-width="1.5" stroke-linejoin="round"/>
    <path d="M -5,8 L -5,10 C -5,10 -5,12 -3,12 L 3,12 C 5,12 5,10 5,10 L 5,-6 C 5,-8 3,-8 3,-8 L -3,-8 C -3,-8 -5,-8 -5,-6 L -5,-4" 
          fill="none" stroke="#FFD700" stroke-width="1.5" stroke-linejoin="round"/>
    
    <!-- 屏幕 -->
    <rect x="-3" y="-6" width="6" height="8" rx="1" ry="1" fill="none" stroke="#7A9AC5" stroke-width="1"/>
    
    <!-- 按钮 -->
    <circle cx="0" cy="10" r="1" fill="#7A9AC5"/>
    
    <!-- 信号波 -->
    <path d="M 7,-6 C 9,-4 10,0 7,4" fill="none" stroke="#7A9AC5" stroke-width="1" stroke-linecap="round"/>
    <path d="M 9,-8 C 12,-5 13,0 9,6" fill="none" stroke="#7A9AC5" stroke-width="1" stroke-linecap="round"/>
  </g>
  
  <!-- 星星装饰 -->
  <g fill="#FFFFFF">
    <circle cx="7" cy="7" r="0.6"/>
    <circle cx="25" cy="7" r="0.6"/>
    <circle cx="7" cy="25" r="0.6"/>
    <circle cx="25" cy="25" r="0.6"/>
  </g>
  
  <!-- 脉冲效果 -->
  <circle cx="16" cy="16" r="12" stroke="#FFD700" stroke-width="0.5" fill="none" opacity="0.3">
    <animate attributeName="r" values="12;13;12" dur="3s" repeatCount="indefinite"/>
    <animate attributeName="opacity" values="0.3;0.1;0.3" dur="3s" repeatCount="indefinite"/>
  </circle>
</svg>