<svg xmlns="http://www.w3.org/2000/svg" width="32" height="32" viewBox="0 0 32 32">
  <!-- 背景圆形 -->
  <circle cx="16" cy="16" r="15" fill="#0B1A2F" stroke="#4A6FA5" stroke-width="1"/>
  
  <!-- 夜间模式图标 -->
  <g transform="translate(16, 16)">
    <!-- 月亮 -->
    <path d="M -2,-9 C -6,-9 -9,-6 -9,-2 C -9,2 -6,5 -2,5 C 2,5 5,2 5,-2 C 5,-6 2,-9 -2,-9 Z" 
          fill="none" stroke="#FFD700" stroke-width="1.5"/>
    <path d="M 2,-7 C -2,-7 -5,-4 -5,0 C -5,4 -2,7 2,7 C 6,7 9,4 9,0 C 9,-4 6,-7 2,-7 Z" 
          fill="none" stroke="#FFD700" stroke-width="1.5"/>
    
    <!-- 星星 -->
    <g fill="#FFFFFF">
      <circle cx="-7" cy="-7" r="0.8"/>
      <circle cx="7" cy="7" r="0.8"/>
      <circle cx="-7" cy="7" r="0.6"/>
      <circle cx="7" cy="-7" r="0.6"/>
    </g>
    
    <!-- 小星星 -->
    <path d="M 5,-2 L 5.5,-1 L 6.5,-0.5 L 5.5,0 L 5,1 L 4.5,0 L 3.5,-0.5 L 4.5,-1 Z" 
          fill="none" stroke="#7A9AC5" stroke-width="0.7"/>
    <path d="M -5,2 L -4.5,3 L -3.5,3.5 L -4.5,4 L -5,5 L -5.5,4 L -6.5,3.5 L -5.5,3 Z" 
          fill="none" stroke="#7A9AC5" stroke-width="0.7"/>
  </g>
  
  <!-- 光芒效果 -->
  <g stroke="#FFD700" stroke-width="0.5" opacity="0.6">
    <line x1="16" y1="1" x2="16" y2="4"/>
    <line x1="16" y1="28" x2="16" y2="31"/>
    <line x1="1" y1="16" x2="4" y2="16"/>
    <line x1="28" y1="16" x2="31" y2="16"/>
  </g>
  
  <!-- 脉冲效果 -->
  <circle cx="16" cy="16" r="12" stroke="#FFD700" stroke-width="0.5" fill="none" opacity="0.3">
    <animate attributeName="r" values="12;13;12" dur="3s" repeatCount="indefinite"/>
    <animate attributeName="opacity" values="0.3;0.1;0.3" dur="3s" repeatCount="indefinite"/>
  </circle>
</svg>