<svg xmlns="http://www.w3.org/2000/svg" width="24" height="24" viewBox="0 0 24 24">
  <!-- 背景圆形 -->
  <circle cx="12" cy="12" r="11" fill="#0B1A2F" stroke="#4A6FA5" stroke-width="1"/>
  
  <!-- 日历图标 -->
  <g transform="translate(12, 12)">
    <!-- 日历外框 -->
    <rect x="-6" y="-6" width="12" height="12" rx="1" ry="1" fill="none" stroke="#FFD700" stroke-width="1.5"/>
    
    <!-- 日历顶部 -->
    <rect x="-6" y="-6" width="12" height="3" fill="none" stroke="#FFD700" stroke-width="1.5"/>
    
    <!-- 日历挂钩 -->
    <line x1="-3" y1="-6" x2="-3" y2="-8" stroke="#FFD700" stroke-width="1.5"/>
    <line x1="3" y1="-6" x2="3" y2="-8" stroke="#FFD700" stroke-width="1.5"/>
    
    <!-- 日历网格 -->
    <line x1="-6" y1="0" x2="6" y2="0" stroke="#7A9AC5" stroke-width="0.5"/>
    <line x1="-6" y1="3" x2="6" y2="3" stroke="#7A9AC5" stroke-width="0.5"/>
    <line x1="-3" y1="-3" x2="-3" y2="6" stroke="#7A9AC5" stroke-width="0.5"/>
    <line x1="0" y1="-3" x2="0" y2="6" stroke="#7A9AC5" stroke-width="0.5"/>
    <line x1="3" y1="-3" x2="3" y2="6" stroke="#7A9AC5" stroke-width="0.5"/>
    
    <!-- 日期标记 -->
    <circle cx="0" cy="1.5" r="1" fill="#7A9AC5"/>
  </g>
  
  <!-- 星星装饰 -->
  <g fill="#FFFFFF">
    <circle cx="5" cy="5" r="0.5"/>
    <circle cx="19" cy="5" r="0.5"/>
    <circle cx="5" cy="19" r="0.5"/>
    <circle cx="19" cy="19" r="0.5"/>
  </g>
  
  <!-- 光芒效果 -->
  <g stroke="#FFD700" stroke-width="0.5" opacity="0.6">
    <line x1="12" y1="1" x2="12" y2="3"/>
    <line x1="12" y1="21" x2="12" y2="23"/>
    <line x1="1" y1="12" x2="3" y2="12"/>
    <line x1="21" y1="12" x2="23" y2="12"/>
  </g>
</svg>