<svg xmlns="http://www.w3.org/2000/svg" width="32" height="32" viewBox="0 0 32 32">
  <!-- 背景 -->
  <rect width="32" height="32" fill="#0B1A2F" rx="4" ry="4"/>
  
  <!-- 星空背景 -->
  <g fill="#FFFFFF">
    <circle cx="5" cy="7" r="0.3"/>
    <circle cx="12" cy="3" r="0.3"/>
    <circle cx="20" cy="15" r="0.3"/>
    <circle cx="28" cy="9" r="0.3"/>
    <circle cx="8" cy="18" r="0.3"/>
    <circle cx="24" cy="24" r="0.3"/>
    <circle cx="16" cy="27" r="0.3"/>
    <circle cx="3" cy="25" r="0.3"/>
    <circle cx="27" cy="17" r="0.3"/>
  </g>
  
  <!-- 星系 -->
  <g transform="translate(16, 16)">
    <!-- 星系核心 -->
    <circle cx="0" cy="0" r="4" fill="#1E3A5F" opacity="0.8"/>
    <circle cx="0" cy="0" r="2.5" fill="#4A6FA5" opacity="0.9"/>
    <circle cx="0" cy="0" r="1" fill="#FFFFFF" opacity="1"/>
    
    <!-- 星系旋臂 -->
    <path d="M 0,0 Q 3,1 5,3 T 7,7" stroke="#4A6FA5" stroke-width="1" fill="none" opacity="0.7"/>
    <path d="M 0,0 Q -3,-1 -5,-3 T -7,-7" stroke="#4A6FA5" stroke-width="1" fill="none" opacity="0.7"/>
    <path d="M 0,0 Q -3,1 -5,3 T -7,7" stroke="#4A6FA5" stroke-width="1" fill="none" opacity="0.7"/>
    <path d="M 0,0 Q 3,-1 5,-3 T 7,-7" stroke="#4A6FA5" stroke-width="1" fill="none" opacity="0.7"/>
    
    <!-- 星星点缀 -->
    <circle cx="3" cy="3" r="0.4" fill="#FFFFFF"/>
    <circle cx="-3" cy="-3" r="0.4" fill="#FFFFFF"/>
    <circle cx="-3" cy="3" r="0.4" fill="#FFFFFF"/>
    <circle cx="3" cy="-3" r="0.4" fill="#FFFFFF"/>
    <circle cx="5" cy="5" r="0.3" fill="#FFFFFF"/>
    <circle cx="-5" cy="-5" r="0.3" fill="#FFFFFF"/>
  </g>
  
  <!-- 脉冲星 -->
  <circle cx="8" cy="8" r="1" fill="#FFD700">
    <animate attributeName="opacity" values="1;0.3;1" dur="2s" repeatCount="indefinite"/>
    <animate attributeName="r" values="1;1.5;1" dur="2s" repeatCount="indefinite"/>
  </circle>
  <circle cx="8" cy="8" r="2" fill="#FFD700" opacity="0.3">
    <animate attributeName="opacity" values="0.3;0.1;0.3" dur="2s" repeatCount="indefinite"/>
    <animate attributeName="r" values="2;2.5;2" dur="2s" repeatCount="indefinite"/>
  </circle>
  
  <!-- 光芒效果 -->
  <g opacity="0.6" stroke="#FFD700" stroke-width="0.3">
    <line x1="16" y1="4" x2="16" y2="2"/>
    <line x1="16" y1="28" x2="16" y2="30"/>
    <line x1="4" y1="16" x2="2" y2="16"/>
    <line x1="28" y1="16" x2="30" y2="16"/>
    <line x1="8" y1="8" x2="6" y2="6"/>
    <line x1="24" y1="24" x2="26" y2="26"/>
    <line x1="8" y1="24" x2="6" y2="26"/>
    <line x1="24" y1="8" x2="26" y2="6"/>
  </g>
</svg>