<svg xmlns="http://www.w3.org/2000/svg" width="48" height="48" viewBox="0 0 48 48">
  <!-- 背景圆形 -->
  <circle cx="24" cy="24" r="23" fill="#0B1A2F" stroke="#4A6FA5" stroke-width="1"/>
  
  <!-- 特色内容图标 -->
  <g transform="translate(24, 24)">
    <!-- 望远镜 -->
    <rect x="-18" y="-5" width="10" height="10" rx="1" ry="1" fill="none" stroke="#FFD700" stroke-width="1.5"/>
    <circle cx="-13" cy="0" r="3" fill="none" stroke="#FFD700" stroke-width="1.5"/>
    <line x1="-10" y1="0" x2="-8" y2="0" stroke="#FFD700" stroke-width="1.5"/>
    
    <!-- 代码片段 -->
    <rect x="-5" y="-10" width="10" height="8" rx="1" ry="1" fill="none" stroke="#7A9AC5" stroke-width="1"/>
    <line x1="-3" y1="-8" x2="1" y2="-8" stroke="#7A9AC5" stroke-width="0.7"/>
    <line x1="-3" y1="-6" x2="3" y2="-6" stroke="#7A9AC5" stroke-width="0.7"/>
    <line x1="-3" y1="-4" x2="0" y2="-4" stroke="#7A9AC5" stroke-width="0.7"/>
    
    <!-- 星系 -->
    <ellipse cx="8" cy="0" rx="8" ry="4" fill="none" stroke="#FFD700" stroke-width="1.5" transform="rotate(30)"/>
    <circle cx="8" cy="0" r="2" fill="none" stroke="#FFD700" stroke-width="1" transform="rotate(30)"/>
    
    <!-- 数据图表 -->
    <rect x="-5" y="2" width="10" height="8" rx="1" ry="1" fill="none" stroke="#7A9AC5" stroke-width="1"/>
    <polyline points="-3,7 -1,5 1,8 3,4" fill="none" stroke="#7A9AC5" stroke-width="0.7"/>
  </g>
  
  <!-- 星星装饰 -->
  <g fill="#FFFFFF">
    <circle cx="10" cy="10" r="0.7"/>
    <circle cx="38" cy="10" r="0.7"/>
    <circle cx="10" cy="38" r="0.7"/>
    <circle cx="38" cy="38" r="0.7"/>
    <circle cx="24" cy="6" r="0.5"/>
    <circle cx="24" cy="42" r="0.5"/>
    <circle cx="6" cy="24" r="0.5"/>
    <circle cx="42" cy="24" r="0.5"/>
  </g>
  
  <!-- 脉冲效果 -->
  <circle cx="24" cy="24" r="18" stroke="#FFD700" stroke-width="0.5" fill="none" opacity="0.3">
    <animate attributeName="r" values="18;19;18" dur="3s" repeatCount="indefinite"/>
    <animate attributeName="opacity" values="0.3;0.1;0.3" dur="3s" repeatCount="indefinite"/>
  </circle>
  
  <!-- 光芒效果 -->
  <g stroke="#FFD700" stroke-width="0.5" opacity="0.6">
    <line x1="24" y1="1" x2="24" y2="5"/>
    <line x1="24" y1="43" x2="24" y2="47"/>
    <line x1="1" y1="24" x2="5" y2="24"/>
    <line x1="43" y1="24" x2="47" y2="24"/>
  </g>
</svg>