<svg xmlns="http://www.w3.org/2000/svg" width="32" height="32" viewBox="0 0 32 32">
  <!-- 背景圆形 -->
  <circle cx="16" cy="16" r="15" fill="#0B1A2F" stroke="#4A6FA5" stroke-width="1"/>
  
  <!-- 特色文章图标 -->
  <g transform="translate(16, 16)">
    <!-- 星形 -->
    <path d="M 0,-10 L 2,-3 L 9,-3 L 3,1 L 5,8 L 0,4 L -5,8 L -3,1 L -9,-3 L -2,-3 Z" 
          fill="none" stroke="#FFD700" stroke-width="1.5" stroke-linejoin="round"/>
    
    <!-- 光芒 -->
    <g stroke="#FFD700" stroke-width="1" opacity="0.8">
      <line x1="0" y1="-12" x2="0" y2="-10" stroke-linecap="round"/>
      <line x1="0" y1="10" x2="0" y2="12" stroke-linecap="round"/>
      <line x1="-12" y1="0" x2="-10" y2="0" stroke-linecap="round"/>
      <line x1="10" y1="0" x2="12" y2="0" stroke-linecap="round"/>
    </g>
  </g>
  
  <!-- 星星装饰 -->
  <g fill="#FFFFFF">
    <circle cx="7" cy="7" r="0.6"/>
    <circle cx="25" cy="7" r="0.6"/>
    <circle cx="7" cy="25" r="0.6"/>
    <circle cx="25" cy="25" r="0.6"/>
    <circle cx="16" cy="5" r="0.4"/>
    <circle cx="16" cy="27" r="0.4"/>
    <circle cx="5" cy="16" r="0.4"/>
    <circle cx="27" cy="16" r="0.4"/>
  </g>
  
  <!-- 脉冲效果 -->
  <circle cx="16" cy="16" r="12" stroke="#FFD700" stroke-width="0.5" fill="none" opacity="0.3">
    <animate attributeName="r" values="12;13;12" dur="3s" repeatCount="indefinite"/>
    <animate attributeName="opacity" values="0.3;0.1;0.3" dur="3s" repeatCount="indefinite"/>
  </circle>
</svg>