<svg xmlns="http://www.w3.org/2000/svg" width="48" height="48" viewBox="0 0 48 48">
  <!-- 背景圆形 -->
  <circle cx="24" cy="24" r="23" fill="#0B1A2F" stroke="#4A6FA5" stroke-width="1"/>
  
  <!-- 页脚图标 -->
  <g transform="translate(24, 24)">
    <!-- 望远镜 -->
    <rect x="-15" y="-10" width="10" height="20" rx="2" ry="2" fill="none" stroke="#FFD700" stroke-width="1.5"/>
    <rect x="-5" y="-8" width="4" height="16" rx="1" ry="1" fill="none" stroke="#FFD700" stroke-width="1.5"/>
    <circle cx="-10" cy="-5" r="2" fill="none" stroke="#7A9AC5" stroke-width="1"/>
    <circle cx="-10" cy="5" r="2" fill="none" stroke="#7A9AC5" stroke-width="1"/>
    
    <!-- 星系 -->
    <ellipse cx="8" cy="0" rx="12" ry="5" fill="none" stroke="#FFD700" stroke-width="1.5" transform="rotate(30)"/>
    <ellipse cx="8" cy="0" rx="8" ry="3" fill="none" stroke="#FFD700" stroke-width="1" transform="rotate(30)"/>
    <circle cx="8" cy="0" r="2" fill="none" stroke="#FFD700" stroke-width="1.5" transform="rotate(30)"/>
    
    <!-- 星星 -->
    <g fill="#FFFFFF">
      <circle cx="-18" cy="-15" r="0.8"/>
      <circle cx="-12" cy="-18" r="0.6"/>
      <circle cx="-5" cy="-15" r="0.7"/>
      <circle cx="2" cy="-18" r="0.5"/>
      <circle cx="10" cy="-15" r="0.8"/>
      <circle cx="18" cy="-18" r="0.6"/>
      <circle cx="-18" cy="15" r="0.7"/>
      <circle cx="-10" cy="18" r="0.5"/>
      <circle cx="0" cy="15" r="0.8"/>
      <circle cx="8" cy="18" r="0.6"/>
      <circle cx="15" cy="15" r="0.7"/>
    </g>
  </g>
  
  <!-- 光芒效果 -->
  <g stroke="#FFD700" stroke-width="0.5" opacity="0.6">
    <line x1="24" y1="1" x2="24" y2="5"/>
    <line x1="24" y1="43" x2="24" y2="47"/>
    <line x1="1" y1="24" x2="5" y2="24"/>
    <line x1="43" y1="24" x2="47" y2="24"/>
  </g>
  
  <!-- 脉冲星 -->
  <g>
    <circle cx="10" cy="10" r="1" fill="#FFFFFF">
      <animate attributeName="opacity" values="1;0.2;1" dur="2s" repeatCount="indefinite"/>
    </circle>
    <circle cx="38" cy="10" r="1" fill="#FFFFFF">
      <animate attributeName="opacity" values="1;0.2;1" dur="3s" repeatCount="indefinite"/>
    </circle>
    <circle cx="10" cy="38" r="1" fill="#FFFFFF">
      <animate attributeName="opacity" values="1;0.2;1" dur="2.5s" repeatCount="indefinite"/>
    </circle>
    <circle cx="38" cy="38" r="1" fill="#FFFFFF">
      <animate attributeName="opacity" values="1;0.2;1" dur="1.5s" repeatCount="indefinite"/>
    </circle>
  </g>
</svg>