<svg xmlns="http://www.w3.org/2000/svg" width="32" height="32" viewBox="0 0 32 32">
  <!-- 背景圆形 -->
  <circle cx="16" cy="16" r="15" fill="#0B1A2F" stroke="#4A6FA5" stroke-width="1"/>
  
  <!-- 亮色模式图标 -->
  <g transform="translate(16, 16)">
    <!-- 太阳 -->
    <circle cx="0" cy="0" r="6" fill="none" stroke="#FFD700" stroke-width="1.5"/>
    
    <!-- 太阳光芒 -->
    <g stroke="#FFD700" stroke-width="1.5" stroke-linecap="round">
      <line x1="0" y1="-10" x2="0" y2="-7"/>
      <line x1="0" y1="7" x2="0" y2="10"/>
      <line x1="-10" y1="0" x2="-7" y2="0"/>
      <line x1="7" y1="0" x2="10" y2="0"/>
      
      <line x1="-7" y1="-7" x2="-5" y2="-5"/>
      <line x1="7" y1="-7" x2="5" y2="-5"/>
      <line x1="-7" y1="7" x2="-5" y2="5"/>
      <line x1="7" y1="7" x2="5" y2="5"/>
    </g>
    
    <!-- 内部细节 -->
    <circle cx="0" cy="0" r="3" fill="none" stroke="#7A9AC5" stroke-width="0.7"/>
    <circle cx="-1.5" cy="-1.5" r="0.7" fill="#7A9AC5"/>
  </g>
  
  <!-- 星星装饰 -->
  <g fill="#FFFFFF">
    <circle cx="7" cy="7" r="0.6"/>
    <circle cx="25" cy="7" r="0.6"/>
    <circle cx="7" cy="25" r="0.6"/>
    <circle cx="25" cy="25" r="0.6"/>
  </g>
  
  <!-- 脉冲效果 -->
  <circle cx="16" cy="16" r="12" stroke="#FFD700" stroke-width="0.5" fill="none" opacity="0.3">
    <animate attributeName="r" values="12;13;12" dur="3s" repeatCount="indefinite"/>
    <animate attributeName="opacity" values="0.3;0.1;0.3" dur="3s" repeatCount="indefinite"/>
  </circle>
</svg>