<svg xmlns="http://www.w3.org/2000/svg" width="48" height="48" viewBox="0 0 48 48">
  <!-- 背景圆形 -->
  <circle cx="24" cy="24" r="23" fill="#0B1A2F" stroke="#4A6FA5" stroke-width="1"/>
  
  <!-- 加载动画图标 -->
  <g transform="translate(24, 24)">
    <!-- 旋转星系 -->
    <g>
      <animateTransform attributeName="transform" type="rotate" from="0" to="360" dur="10s" repeatCount="indefinite"/>
      
      <!-- 星系旋臂 -->
      <path d="M 0,0 C 2,2 5,5 10,8 C 8,10 5,12 0,15 C -2,12 -5,10 -10,8 C -8,5 -5,2 0,0 Z" 
            fill="none" stroke="#FFD700" stroke-width="1.5" transform="rotate(0)"/>
      <path d="M 0,0 C 2,2 5,5 10,8 C 8,10 5,12 0,15 C -2,12 -5,10 -10,8 C -8,5 -5,2 0,0 Z" 
            fill="none" stroke="#FFD700" stroke-width="1.5" transform="rotate(120)"/>
      <path d="M 0,0 C 2,2 5,5 10,8 C 8,10 5,12 0,15 C -2,12 -5,10 -10,8 C -8,5 -5,2 0,0 Z" 
            fill="none" stroke="#FFD700" stroke-width="1.5" transform="rotate(240)"/>
      
      <!-- 星系中心 -->
      <circle cx="0" cy="0" r="3" fill="none" stroke="#FFD700" stroke-width="1.5"/>
    </g>
    
    <!-- 脉冲星 -->
    <g>
      <circle cx="-12" cy="-12" r="1.5" fill="#FFFFFF">
        <animate attributeName="opacity" values="1;0.2;1" dur="1.5s" repeatCount="indefinite"/>
      </circle>
      <circle cx="12" cy="-12" r="1.5" fill="#FFFFFF">
        <animate attributeName="opacity" values="1;0.2;1" dur="2s" repeatCount="indefinite"/>
      </circle>
      <circle cx="-12" cy="12" r="1.5" fill="#FFFFFF">
        <animate attributeName="opacity" values="1;0.2;1" dur="2.5s" repeatCount="indefinite"/>
      </circle>
      <circle cx="12" cy="12" r="1.5" fill="#FFFFFF">
        <animate attributeName="opacity" values="1;0.2;1" dur="1.8s" repeatCount="indefinite"/>
      </circle>
    </g>
    
    <!-- 进度环 -->
    <circle cx="0" cy="0" r="18" fill="none" stroke="#7A9AC5" stroke-width="1" stroke-dasharray="4,4">
      <animateTransform attributeName="transform" type="rotate" from="0" to="360" dur="15s" repeatCount="indefinite"/>
    </circle>
  </g>
  
  <!-- 星星装饰 -->
  <g fill="#FFFFFF">
    <circle cx="10" cy="10" r="0.7"/>
    <circle cx="38" cy="10" r="0.7"/>
    <circle cx="10" cy="38" r="0.7"/>
    <circle cx="38" cy="38" r="0.7"/>
  </g>
  
  <!-- 脉冲效果 -->
  <circle cx="24" cy="24" r="20" stroke="#FFD700" stroke-width="0.5" fill="none" opacity="0.3">
    <animate attributeName="r" values="20;21;20" dur="3s" repeatCount="indefinite"/>
    <animate attributeName="opacity" values="0.3;0.1;0.3" dur="3s" repeatCount="indefinite"/>
  </circle>
</svg>