<svg xmlns="http://www.w3.org/2000/svg" width="32" height="32" viewBox="0 0 32 32">
  <!-- 背景圆形 -->
  <circle cx="16" cy="16" r="15" fill="#0B1A2F" stroke="#4A6FA5" stroke-width="1"/>
  
  <!-- 热门文章图标 -->
  <g transform="translate(16, 16)">
    <!-- 火焰形状 -->
    <path d="M 0,10 C 2,7 4,5 3,0 C 6,2 7,0 8,-3 C 8,2 12,4 10,10 C 8,12 2,12 0,10 Z" 
          fill="none" stroke="#FFD700" stroke-width="1.5" stroke-linejoin="round"/>
    <path d="M 0,7 C 1,5 2,3 1.5,0 C 3,1 4,0 4.5,-1.5 C 4.5,1 6.5,2 5.5,7 C 4.5,8.5 1,8.5 0,7 Z" 
          fill="none" stroke="#FFD700" stroke-width="1" stroke-linejoin="round"/>
    
    <!-- 文档 -->
    <rect x="-10" y="-8" width="8" height="10" rx="1" ry="1" fill="none" stroke="#7A9AC5" stroke-width="1"/>
    <line x1="-8" y1="-6" x2="-4" y2="-6" stroke="#7A9AC5" stroke-width="0.7"/>
    <line x1="-8" y1="-4" x2="-4" y2="-4" stroke="#7A9AC5" stroke-width="0.7"/>
    <line x1="-8" y1="-2" x2="-6" y2="-2" stroke="#7A9AC5" stroke-width="0.7"/>
    
    <!-- 图表 -->
    <rect x="-10" y="4" width="8" height="6" fill="none" stroke="#7A9AC5" stroke-width="1"/>
    <line x1="-9" y1="7" x2="-7" y2="5" stroke="#7A9AC5" stroke-width="0.7"/>
    <line x1="-7" y1="5" x2="-5" y2="8" stroke="#7A9AC5" stroke-width="0.7"/>
    <line x1="-5" y1="8" x2="-3" y2="6" stroke="#7A9AC5" stroke-width="0.7"/>
  </g>
  
  <!-- 星星装饰 -->
  <g fill="#FFFFFF">
    <circle cx="7" cy="7" r="0.6"/>
    <circle cx="25" cy="7" r="0.6"/>
    <circle cx="7" cy="25" r="0.6"/>
    <circle cx="25" cy="25" r="0.6"/>
  </g>
  
  <!-- 脉冲效果 -->
  <circle cx="16" cy="16" r="12" stroke="#FFD700" stroke-width="0.5" fill="none" opacity="0.3">
    <animate attributeName="r" values="12;13;12" dur="2s" repeatCount="indefinite"/>
    <animate attributeName="opacity" values="0.3;0.1;0.3" dur="2s" repeatCount="indefinite"/>
  </circle>
</svg>