<svg xmlns="http://www.w3.org/2000/svg" width="24" height="24" viewBox="0 0 24 24">
  <!-- 背景圆形 -->
  <circle cx="12" cy="12" r="11" fill="#0B1A2F" stroke="#4A6FA5" stroke-width="1"/>
  
  <!-- 打印机图标 -->
  <g transform="translate(12, 12)">
    <!-- 打印机主体 -->
    <rect x="-6" y="-2" width="12" height="6" rx="1" ry="1" fill="none" stroke="#FFD700" stroke-width="1.5"/>
    
    <!-- 纸张 -->
    <rect x="-4" y="-6" width="8" height="4" fill="none" stroke="#7A9AC5" stroke-width="1"/>
    <rect x="-4" y="4" width="8" height="4" fill="none" stroke="#7A9AC5" stroke-width="1"/>
    
    <!-- 按钮 -->
    <circle cx="4" cy="0" r="1" fill="#7A9AC5"/>
    
    <!-- 连接线 -->
    <line x1="-4" y1="-2" x2="-4" y2="-6" stroke="#7A9AC5" stroke-width="1"/>
    <line x1="4" y1="-2" x2="4" y2="-6" stroke="#7A9AC5" stroke-width="1"/>
    <line x1="-4" y1="4" x2="-4" y2="8" stroke="#7A9AC5" stroke-width="1"/>
    <line x1="4" y1="4" x2="4" y2="8" stroke="#7A9AC5" stroke-width="1"/>
  </g>
  
  <!-- 星星装饰 -->
  <g fill="#FFFFFF">
    <circle cx="5" cy="5" r="0.5"/>
    <circle cx="19" cy="5" r="0.5"/>
    <circle cx="5" cy="19" r="0.5"/>
    <circle cx="19" cy="19" r="0.5"/>
  </g>
  
  <!-- 光芒效果 -->
  <g stroke="#FFD700" stroke-width="0.5" opacity="0.6">
    <line x1="12" y1="1" x2="12" y2="3"/>
    <line x1="12" y1="21" x2="12" y2="23"/>
    <line x1="1" y1="12" x2="3" y2="12"/>
    <line x1="21" y1="12" x2="23" y2="12"/>
  </g>
</svg>