<svg xmlns="http://www.w3.org/2000/svg" width="24" height="24" viewBox="0 0 24 24">
  <!-- 背景圆形 -->
  <circle cx="12" cy="12" r="11" fill="#0B1A2F" stroke="#4A6FA5" stroke-width="1"/>
  
  <!-- 阅读时间图标 -->
  <g transform="translate(12, 12)">
    <!-- 时钟外圈 -->
    <circle cx="0" cy="0" r="7" fill="none" stroke="#FFD700" stroke-width="1.5"/>
    
    <!-- 时钟指针 -->
    <line x1="0" y1="0" x2="0" y2="-4" stroke="#FFD700" stroke-width="1.5" stroke-linecap="round"/>
    <line x1="0" y1="0" x2="3" y2="0" stroke="#FFD700" stroke-width="1.5" stroke-linecap="round"/>
    
    <!-- 时钟中心点 -->
    <circle cx="0" cy="0" r="0.7" fill="#7A9AC5"/>
    
    <!-- 时钟刻度 -->
    <line x1="0" y1="-7" x2="0" y2="-6" stroke="#7A9AC5" stroke-width="1"/>
    <line x1="7" y1="0" x2="6" y2="0" stroke="#7A9AC5" stroke-width="1"/>
    <line x1="0" y1="7" x2="0" y2="6" stroke="#7A9AC5" stroke-width="1"/>
    <line x1="-7" y1="0" x2="-6" y2="0" stroke="#7A9AC5" stroke-width="1"/>
    
    <line x1="5" y1="-5" x2="4.3" y2="-4.3" stroke="#7A9AC5" stroke-width="0.5"/>
    <line x1="5" y1="5" x2="4.3" y2="4.3" stroke="#7A9AC5" stroke-width="0.5"/>
    <line x1="-5" y1="5" x2="-4.3" y2="4.3" stroke="#7A9AC5" stroke-width="0.5"/>
    <line x1="-5" y1="-5" x2="-4.3" y2="-4.3" stroke="#7A9AC5" stroke-width="0.5"/>
  </g>
  
  <!-- 星星装饰 -->
  <g fill="#FFFFFF">
    <circle cx="5" cy="5" r="0.5"/>
    <circle cx="19" cy="5" r="0.5"/>
    <circle cx="5" cy="19" r="0.5"/>
    <circle cx="19" cy="19" r="0.5"/>
  </g>
</svg>