<svg xmlns="http://www.w3.org/2000/svg" width="24" height="24" viewBox="0 0 24 24">
  <!-- 背景圆形 -->
  <circle cx="12" cy="12" r="11" fill="#0B1A2F" stroke="#4A6FA5" stroke-width="1"/>
  
  <!-- 阅读更多图标 -->
  <g transform="translate(12, 12)">
    <!-- 书本形状 -->
    <path d="M -5,-6 L 5,-6 L 5,6 L -5,6 L -5,-6" stroke="#FFD700" stroke-width="1.5" fill="none" stroke-linejoin="round"/>
    
    <!-- 书页 -->
    <path d="M -5,-6 L 0,-4 L 5,-6" stroke="#FFD700" stroke-width="1.5" fill="none"/>
    <path d="M 0,-4 L 0,6" stroke="#FFD700" stroke-width="1.5" fill="none"/>
    
    <!-- 文本线条 -->
    <line x1="-3" y1="-2" x2="-1" y2="-2" stroke="#7A9AC5" stroke-width="1"/>
    <line x1="1" y1="-2" x2="3" y2="-2" stroke="#7A9AC5" stroke-width="1"/>
    
    <line x1="-3" y1="0" x2="-1" y2="0" stroke="#7A9AC5" stroke-width="1"/>
    <line x1="1" y1="0" x2="3" y2="0" stroke="#7A9AC5" stroke-width="1"/>
    
    <line x1="-3" y1="2" x2="-1" y2="2" stroke="#7A9AC5" stroke-width="1"/>
    <line x1="1" y1="2" x2="3" y2="2" stroke="#7A9AC5" stroke-width="1"/>
    
    <line x1="-3" y1="4" x2="-1" y2="4" stroke="#7A9AC5" stroke-width="1"/>
    <line x1="1" y1="4" x2="3" y2="4" stroke="#7A9AC5" stroke-width="1"/>
  </g>
  
  <!-- 星星装饰 -->
  <g fill="#FFFFFF">
    <circle cx="5" cy="5" r="0.5"/>
    <circle cx="19" cy="5" r="0.5"/>
    <circle cx="5" cy="19" r="0.5"/>
    <circle cx="19" cy="19" r="0.5"/>
  </g>
</svg>