<svg xmlns="http://www.w3.org/2000/svg" width="32" height="32" viewBox="0 0 32 32">
  <!-- 背景圆形 -->
  <circle cx="16" cy="16" r="15" fill="#0B1A2F" stroke="#4A6FA5" stroke-width="1"/>
  
  <!-- 相关文章图标 -->
  <g transform="translate(16, 16)">
    <!-- 中心文档 -->
    <rect x="-3" y="-3" width="6" height="6" rx="1" ry="1" fill="none" stroke="#FFD700" stroke-width="1.5"/>
    
    <!-- 相关文档 -->
    <rect x="-10" y="-10" width="6" height="6" rx="1" ry="1" fill="none" stroke="#7A9AC5" stroke-width="1"/>
    <rect x="4" y="-10" width="6" height="6" rx="1" ry="1" fill="none" stroke="#7A9AC5" stroke-width="1"/>
    <rect x="-10" y="4" width="6" height="6" rx="1" ry="1" fill="none" stroke="#7A9AC5" stroke-width="1"/>
    <rect x="4" y="4" width="6" height="6" rx="1" ry="1" fill="none" stroke="#7A9AC5" stroke-width="1"/>
    
    <!-- 连接线 -->
    <line x1="-3" y1="-3" x2="-4" y2="-4" stroke="#FFD700" stroke-width="1"/>
    <line x1="3" y1="-3" x2="4" y2="-4" stroke="#FFD700" stroke-width="1"/>
    <line x1="-3" y1="3" x2="-4" y2="4" stroke="#FFD700" stroke-width="1"/>
    <line x1="3" y1="3" x2="4" y2="4" stroke="#FFD700" stroke-width="1"/>
    
    <line x1="-4" y1="-4" x2="-7" y2="-7" stroke="#7A9AC5" stroke-width="1"/>
    <line x1="4" y1="-4" x2="7" y2="-7" stroke="#7A9AC5" stroke-width="1"/>
    <line x1="-4" y1="4" x2="-7" y2="7" stroke="#7A9AC5" stroke-width="1"/>
    <line x1="4" y1="4" x2="7" y2="7" stroke="#7A9AC5" stroke-width="1"/>
    
    <!-- 文档内容线条 -->
    <line x1="-2" y1="-1.5" x2="2" y2="-1.5" stroke="#FFD700" stroke-width="0.7"/>
    <line x1="-2" y1="0" x2="2" y2="0" stroke="#FFD700" stroke-width="0.7"/>
    <line x1="-2" y1="1.5" x2="1" y2="1.5" stroke="#FFD700" stroke-width="0.7"/>
    
    <line x1="-9" y1="-8.5" x2="-5" y2="-8.5" stroke="#7A9AC5" stroke-width="0.5"/>
    <line x1="-9" y1="-7" x2="-5" y2="-7" stroke="#7A9AC5" stroke-width="0.5"/>
    
    <line x1="5" y1="-8.5" x2="9" y2="-8.5" stroke="#7A9AC5" stroke-width="0.5"/>
    <line x1="5" y1="-7" x2="9" y2="-7" stroke="#7A9AC5" stroke-width="0.5"/>
    
    <line x1="-9" y1="5.5" x2="-5" y2="5.5" stroke="#7A9AC5" stroke-width="0.5"/>
    <line x1="-9" y1="7" x2="-5" y2="7" stroke="#7A9AC5" stroke-width="0.5"/>
    
    <line x1="5" y1="5.5" x2="9" y2="5.5" stroke="#7A9AC5" stroke-width="0.5"/>
    <line x1="5" y1="7" x2="9" y2="7" stroke="#7A9AC5" stroke-width="0.5"/>
  </g>
  
  <!-- 星星装饰 -->
  <g fill="#FFFFFF">
    <circle cx="7" cy="7" r="0.6"/>
    <circle cx="25" cy="7" r="0.6"/>
    <circle cx="7" cy="25" r="0.6"/>
    <circle cx="25" cy="25" r="0.6"/>
  </g>
  
  <!-- 脉冲效果 -->
  <circle cx="16" cy="16" r="12" stroke="#FFD700" stroke-width="0.5" fill="none" opacity="0.3">
    <animate attributeName="r" values="12;13;12" dur="3s" repeatCount="indefinite"/>
    <animate attributeName="opacity" values="0.3;0.1;0.3" dur="3s" repeatCount="indefinite"/>
  </circle>
</svg>