<svg xmlns="http://www.w3.org/2000/svg" width="200" height="200" viewBox="0 0 200 200">
  <!-- 背景圆形 -->
  <circle cx="100" cy="100" r="90" fill="#0B1A2F" stroke="#4A6FA5" stroke-width="2"/>
  
  <!-- 资源图标 - 数据集符号 -->
  <g transform="translate(100, 100)">
    <!-- 数据库图标 -->
    <path d="M -40,-30 L 40,-30 L 40,30 L -40,30 Z" fill="none" stroke="#FFD700" stroke-width="3" rx="5" ry="5"/>
    
    <!-- 数据行 -->
    <line x1="-30" y1="-15" x2="30" y2="-15" stroke="#7A9AC5" stroke-width="2"/>
    <line x1="-30" y1="0" x2="30" y2="0" stroke="#7A9AC5" stroke-width="2"/>
    <line x1="-30" y1="15" x2="30" y2="15" stroke="#7A9AC5" stroke-width="2"/>
    
    <!-- 星星装饰 -->
    <circle cx="-20" cy="-15" r="3" fill="#FFFFFF"/>
    <circle cx="10" cy="0" r="3" fill="#FFFFFF"/>
    <circle cx="-5" cy="15" r="3" fill="#FFFFFF"/>
    
    <!-- 轨道环 -->
    <ellipse cx="0" cy="0" rx="60" ry="20" fill="none" stroke="#4A6FA5" stroke-width="1" transform="rotate(30 0 0)"/>
    <ellipse cx="0" cy="0" rx="60" ry="20" fill="none" stroke="#4A6FA5" stroke-width="1" transform="rotate(150 0 0)"/>
    
    <!-- 轨道上的行星 -->
    <circle cx="50" cy="10" r="5" fill="#FFD700" opacity="0.8" transform="rotate(30 0 0)"/>
    <circle cx="-50" cy="-10" r="5" fill="#FFD700" opacity="0.8" transform="rotate(30 0 0)"/>
    
    <!-- 光芒效果 -->
    <g opacity="0.6">
      <line x1="0" y1="-50" x2="0" y2="-70" stroke="#FFD700" stroke-width="1"/>
      <line x1="50" y1="0" x2="70" y2="0" stroke="#FFD700" stroke-width="1"/>
      <line x1="0" y1="50" x2="0" y2="70" stroke="#FFD700" stroke-width="1"/>
      <line x1="-50" y1="0" x2="-70" y2="0" stroke="#FFD700" stroke-width="1"/>
      
      <line x1="35" y1="-35" x2="50" y2="-50" stroke="#FFD700" stroke-width="1"/>
      <line x1="35" y1="35" x2="50" y2="50" stroke="#FFD700" stroke-width="1"/>
      <line x1="-35" y1="35" x2="-50" y2="50" stroke="#FFD700" stroke-width="1"/>
      <line x1="-35" y1="-35" x2="-50" y2="-50" stroke="#FFD700" stroke-width="1"/>
    </g>
  </g>
  
  <!-- 星星背景 -->
  <g fill="#FFFFFF">
    <circle cx="30" cy="30" r="1"/>
    <circle cx="50" cy="170" r="1"/>
    <circle cx="150" cy="40" r="1"/>
    <circle cx="170" cy="160" r="1"/>
    <circle cx="40" cy="100" r="1"/>
    <circle cx="160" cy="100" r="1"/>
    <circle cx="100" cy="40" r="1"/>
    <circle cx="100" cy="160" r="1"/>
    <circle cx="60" cy="60" r="1"/>
    <circle cx="140" cy="140" r="1"/>
    <circle cx="60" cy="140" r="1"/>
    <circle cx="140" cy="60" r="1"/>
  </g>
</svg>