<svg xmlns="http://www.w3.org/2000/svg" width="120" height="30" viewBox="0 0 120 30">
  <!-- 背景 -->
  <rect width="120" height="30" fill="none"/>
  
  <!-- Twitter/X 图标 -->
  <g transform="translate(15, 15)">
    <circle cx="0" cy="0" r="12" fill="#0B1A2F" stroke="#4A6FA5" stroke-width="1"/>
    <path d="M -5,-5 L 0,0 L -5,5 M 0,0 L 5,5 M 0,0 L 5,-5" stroke="#FFFFFF" stroke-width="1.5" fill="none" stroke-linecap="round" stroke-linejoin="round"/>
  </g>
  
  <!-- GitHub 图标 -->
  <g transform="translate(45, 15)">
    <circle cx="0" cy="0" r="12" fill="#0B1A2F" stroke="#4A6FA5" stroke-width="1"/>
    <circle cx="0" cy="-3" r="4" fill="none" stroke="#FFFFFF" stroke-width="1.5"/>
    <path d="M -4,2 C -4,6 4,6 4,2 L 4,-1 C 4,-1 2,1 0,1 C -2,1 -4,-1 -4,-1 Z" fill="none" stroke="#FFFFFF" stroke-width="1.5"/>
  </g>
  
  <!-- LinkedIn 图标 -->
  <g transform="translate(75, 15)">
    <circle cx="0" cy="0" r="12" fill="#0B1A2F" stroke="#4A6FA5" stroke-width="1"/>
    <rect x="-5" y="-1" width="3" height="6" fill="#FFFFFF" rx="1" ry="1"/>
    <circle cx="-3.5" cy="-4" r="1.5" fill="#FFFFFF"/>
    <path d="M 0,-1 L 0,5 M 0,-1 C 0,-3 5,-3 5,-1 L 5,5" stroke="#FFFFFF" stroke-width="1.5" fill="none" stroke-linecap="round"/>
  </g>
  
  <!-- RSS 图标 -->
  <g transform="translate(105, 15)">
    <circle cx="0" cy="0" r="12" fill="#0B1A2F" stroke="#4A6FA5" stroke-width="1"/>
    <circle cx="-3" cy="3" r="1.5" fill="#FFFFFF"/>
    <path d="M -3,-3 C 3,-3 3,3 -3,3" stroke="#FFFFFF" stroke-width="0" fill="none"/>
    <path d="M -3,-3 C 5,-3 5,5 -3,5" stroke="#FFFFFF" stroke-width="1.5" fill="none" stroke-linecap="round"/>
    <path d="M -3,-6 C 8,-6 8,8 -3,8" stroke="#FFFFFF" stroke-width="1.5" fill="none" stroke-linecap="round"/>
  </g>
  
  <!-- 星星装饰 -->
  <g fill="#FFD700" opacity="0.8">
    <circle cx="15" cy="5" r="0.7"/>
    <circle cx="45" cy="25" r="0.7"/>
    <circle cx="75" cy="5" r="0.7"/>
    <circle cx="105" cy="25" r="0.7"/>
  </g>
</svg>