<svg xmlns="http://www.w3.org/2000/svg" width="32" height="32" viewBox="0 0 32 32">
  <!-- 背景圆形 -->
  <circle cx="16" cy="16" r="15" fill="#0B1A2F" stroke="#4A6FA5" stroke-width="1"/>
  
  <!-- 订阅图标 -->
  <g transform="translate(16, 16)">
    <!-- 信封 -->
    <rect x="-10" y="-6" width="20" height="12" rx="1" ry="1" fill="none" stroke="#FFD700" stroke-width="1.5"/>
    
    <!-- 信封盖 -->
    <path d="M -10,-6 L 0,0 L 10,-6" fill="none" stroke="#FFD700" stroke-width="1.5"/>
    
    <!-- 信封内容线 -->
    <line x1="-6" y1="0" x2="6" y2="0" stroke="#7A9AC5" stroke-width="1"/>
    <line x1="-6" y1="2" x2="6" y2="2" stroke="#7A9AC5" stroke-width="1"/>
    <line x1="-6" y1="4" x2="2" y2="4" stroke="#7A9AC5" stroke-width="1"/>
  </g>
  
  <!-- 星星装饰 -->
  <g fill="#FFFFFF">
    <circle cx="7" cy="7" r="0.6"/>
    <circle cx="25" cy="7" r="0.6"/>
    <circle cx="7" cy="25" r="0.6"/>
    <circle cx="25" cy="25" r="0.6"/>
    <circle cx="16" cy="5" r="0.4"/>
    <circle cx="16" cy="27" r="0.4"/>
    <circle cx="5" cy="16" r="0.4"/>
    <circle cx="27" cy="16" r="0.4"/>
  </g>
  
  <!-- 脉冲效果 -->
  <circle cx="16" cy="16" r="12" stroke="#FFD700" stroke-width="0.5" fill="none" opacity="0.3">
    <animate attributeName="r" values="12;13;12" dur="3s" repeatCount="indefinite"/>
    <animate attributeName="opacity" values="0.3;0.1;0.3" dur="3s" repeatCount="indefinite"/>
  </circle>
  
  <!-- 光芒效果 -->
  <g stroke="#FFD700" stroke-width="0.5" opacity="0.6">
    <line x1="16" y1="1" x2="16" y2="4"/>
    <line x1="16" y1="28" x2="16" y2="31"/>
    <line x1="1" y1="16" x2="4" y2="16"/>
    <line x1="28" y1="16" x2="31" y2="16"/>
  </g>
</svg>