<svg xmlns="http://www.w3.org/2000/svg" width="200" height="200" viewBox="0 0 200 200">
  <!-- 背景圆形 -->
  <circle cx="100" cy="100" r="90" fill="#0B1A2F" stroke="#4A6FA5" stroke-width="2"/>
  
  <!-- 标签图标 -->
  <g transform="translate(100, 100)">
    <!-- 标签形状 -->
    <path d="M -50,-30 L 20,-30 L 50,0 L 20,30 L -50,30 Z" fill="none" stroke="#FFD700" stroke-width="3"/>
    
    <!-- 标签孔 -->
    <circle cx="-35" cy="0" r="8" fill="none" stroke="#7A9AC5" stroke-width="2"/>
    
    <!-- 标签文本线 -->
    <line x1="-20" y1="-15" x2="30" y2="-15" stroke="#7A9AC5" stroke-width="2"/>
    <line x1="-20" y1="0" x2="30" y2="0" stroke="#7A9AC5" stroke-width="2"/>
    <line x1="-20" y1="15" x2="30" y2="15" stroke="#7A9AC5" stroke-width="2"/>
    
    <!-- 多个标签效果 -->
    <path d="M -55,-35 L 15,-35 L 45,-5 L 15,25 L -55,25 Z" fill="none" stroke="#4A6FA5" stroke-width="1" opacity="0.6"/>
    <path d="M -45,-25 L 25,-25 L 55,5 L 25,35 L -45,35 Z" fill="none" stroke="#4A6FA5" stroke-width="1" opacity="0.6"/>
    
    <!-- 星星装饰 -->
    <circle cx="-35" cy="0" r="3" fill="#FFFFFF"/>
    <circle cx="15" cy="-15" r="2" fill="#FFD700"/>
    <circle cx="25" cy="15" r="2" fill="#FFD700"/>
    
    <!-- 光芒效果 -->
    <g opacity="0.6">
      <line x1="0" y1="-40" x2="0" y2="-60" stroke="#FFD700" stroke-width="1"/>
      <line x1="40" y1="0" x2="60" y2="0" stroke="#FFD700" stroke-width="1"/>
      <line x1="0" y1="40" x2="0" y2="60" stroke="#FFD700" stroke-width="1"/>
      <line x1="-60" y1="0" x2="-40" y2="0" stroke="#FFD700" stroke-width="1"/>
      
      <line x1="30" y1="-30" x2="45" y2="-45" stroke="#FFD700" stroke-width="1"/>
      <line x1="30" y1="30" x2="45" y2="45" stroke="#FFD700" stroke-width="1"/>
      <line x1="-30" y1="30" x2="-45" y2="45" stroke="#FFD700" stroke-width="1"/>
      <line x1="-30" y1="-30" x2="-45" y2="-45" stroke="#FFD700" stroke-width="1"/>
    </g>
  </g>
  
  <!-- 星星背景 -->
  <g fill="#FFFFFF">
    <circle cx="30" cy="30" r="1"/>
    <circle cx="50" cy="170" r="1"/>
    <circle cx="150" cy="40" r="1"/>
    <circle cx="170" cy="160" r="1"/>
    <circle cx="40" cy="100" r="1"/>
    <circle cx="160" cy="100" r="1"/>
    <circle cx="100" cy="40" r="1"/>
    <circle cx="100" cy="160" r="1"/>
    <circle cx="60" cy="60" r="1"/>
    <circle cx="140" cy="140" r="1"/>
    <circle cx="60" cy="140" r="1"/>
    <circle cx="140" cy="60" r="1"/>
  </g>
</svg>